<svg width="36" height="41" viewBox="0 0 36 41" fill="none" xmlns="http://www.w3.org/2000/svg">
<path d="M18.4271 7.16553C19.972 7.16553 21.4537 7.86882 22.5462 9.12069C23.6386 10.3726 24.2523 12.0705 24.2523 13.8409C24.2523 15.6113 23.6386 17.3092 22.5462 18.5611C21.4537 19.8129 19.972 20.5162 18.4271 20.5162C16.8821 20.5162 15.4005 19.8129 14.308 18.5611C13.2156 17.3092 12.6019 15.6113 12.6019 13.8409C12.6019 12.0705 13.2156 10.3726 14.308 9.12069C15.4005 7.86882 16.8821 7.16553 18.4271 7.16553ZM18.4271 23.8539C24.864 23.8539 30.0776 26.8411 30.0776 30.5293V33.867H6.77661V30.5293C6.77661 26.8411 11.9902 23.8539 18.4271 23.8539Z" fill="#212427"/>
</svg>
